<svg xmlns="http://www.w3.org/2000/svg" width="265.039" height="300" viewBox="0 0 265.039 300"><path fill="#d3d3d3" d="M246.747,167.743a48.048,48.048,0,0,0-3.548-16.96c-1.637-4.178-3.538-8.246-5.395-12.329q-22.16-48.293-46.5-95.542c-2.281-4.4-4.515-8.827-6.924-13.159a46.634,46.634,0,0,0-8.692-11.6A33.94,33.94,0,0,0,154.515,9h-3.61a33.8,33.8,0,0,0-21.742,9.431,47.091,47.091,0,0,0-8.4,11.334c-2.378,4.261-4.58,8.618-6.818,12.948Q97.618,74.4,82.256,106.58c-6.1,12.836-12.156,25.693-17.978,38.654-2.414,5.4-4.6,10.984-5.42,16.878a43.089,43.089,0,0,0,25.458,45.807,43.892,43.892,0,0,0,19.9,3.522,54.563,54.563,0,0,0,25.586-8.528c8.593-5.274,15.942-12.287,22.785-19.63,6.363,6.858,13.172,13.4,21.033,18.531,7.592,4.995,16.247,8.611,25.352,9.471A43.207,43.207,0,0,0,243.7,184.339a42.863,42.863,0,0,0,3.05-16.6ZM152.626,163.9c-2.482-2.922-4.669-6.084-6.866-9.222A113.028,113.028,0,0,1,136,137.606a56.075,56.075,0,0,1-4.687-15.6,26.932,26.932,0,0,1,1.192-12.86,18.954,18.954,0,0,1,7.562-9.33c8.189-5.285,19.862-4.714,27.283,1.7a19.825,19.825,0,0,1,6.564,12.792c.739,6.462-.731,12.953-2.987,18.981-4.261,11.185-11.005,21.211-18.3,30.619Zm80.354,13.707a30.428,30.428,0,0,1-14.331,17.959A31.284,31.284,0,0,1,198.389,199c-8.759-1.363-16.618-6.011-23.427-11.5a124.331,124.331,0,0,1-13.828-13.355c6.816-8.621,13.237-17.641,18.142-27.5,4.281-8.634,7.533-17.989,7.842-27.7a36.414,36.414,0,0,0-3.862-17.918A32.89,32.89,0,0,0,165,85.355a37.363,37.363,0,0,0-22.637-.711,32.793,32.793,0,0,0-24.178,29.5c-.779,9.071,1.494,18.12,4.933,26.459,5.113,12.184,12.616,23.213,20.9,33.443A114.224,114.224,0,0,1,131.892,186.1c-6.728,5.694-14.426,10.65-23.147,12.536a31.757,31.757,0,0,1-21.123-2.476,30.368,30.368,0,0,1-15.582-19.054,31.331,31.331,0,0,1,.689-18.363c1.659-4.865,3.909-9.5,6.014-14.182q21.923-47.774,45.977-94.525c2.391-4.637,4.745-9.3,7.276-13.857,2.066-3.675,4.468-7.283,7.864-9.863a21.007,21.007,0,0,1,26.061.49c3.613,3,6.054,7.105,8.246,11.2,4.955,9.307,9.714,18.722,14.474,28.126q20.38,40.336,39.157,81.452a98.653,98.653,0,0,1,5.188,12.975,31.181,31.181,0,0,1-.007,17.054ZM81.725,236.545a8.3,8.3,0,1,1-3,1.28,8.451,8.451,0,0,1,3-1.28Zm27.633,26.828a16.245,16.245,0,0,1,9.513-4.892,22.336,22.336,0,0,1,7.132.452c-.03,3.771-.007,7.537-.013,11.309a18.949,18.949,0,0,0-11.24.181,13.387,13.387,0,0,0-5.147,3.382c-.309.264-.234.691-.262,1.058.022,10.536-.017,21.073.015,31.607a3.617,3.617,0,0,1-.118,1.242c-4.068.095-8.141.018-12.211.033q0-24.092.01-48.188c3.427.015,6.856-.013,10.285.007a1.822,1.822,0,0,1,1.833,1.079A9.944,9.944,0,0,1,109.358,263.373Zm87.718.043a17.6,17.6,0,0,1,12.606-5.036,20.538,20.538,0,0,1,13.689,4.5,14.894,14.894,0,0,1,5.172,7.783c1.076,3.754.98,7.7.966,11.565q0,12.762,0,25.528c-4.1-.007-8.2.027-12.307-.018q0-12.755,0-25.513c0-3.16.149-6.569-1.531-9.383a7.346,7.346,0,0,0-5.72-3.259,13.41,13.41,0,0,0-11.63,4.113,1.544,1.544,0,0,0-.545,1.179c-.04,1.315.159,2.635.047,3.952-.161,1.788.09,3.577.032,5.37q-.079,5.071-.013,10.144c-.232,4.472.173,8.958-.095,13.425-4.086-.013-8.169,0-12.256-.005,0-16.07-.03-32.136.015-48.2,3.16.025,6.326,0,9.484.01a1.826,1.826,0,0,1,1.921,1.235,13.491,13.491,0,0,1,.158,2.619ZM77.225,307.755q0-24.1.008-48.2,6.107.015,12.211,0c.032,16.066.008,32.133.012,48.2Q83.341,307.754,77.225,307.755Zm-7.583-48.2c-3.226-.007-6.453.01-9.682-.018-.853,0-1.943.037-2.359.933a8.376,8.376,0,0,0-.264,2.914,16.375,16.375,0,0,0-10.351-4.923,24.8,24.8,0,0,0-17.02,4.764,24.105,24.105,0,0,0-8.43,11.831,31.023,31.023,0,0,0-1.345,6.775v3.3a25.4,25.4,0,0,0,8.774,18.189,24.936,24.936,0,0,0,14.5,5.67H46.2a16.613,16.613,0,0,0,11.135-5.114,8.579,8.579,0,0,0,.254,2.941,2.1,2.1,0,0,0,2.056.933c3.329-.008,6.663,0,10-.015q0-24.082,0-48.178ZM56.959,292.74a13.052,13.052,0,0,1-10.267,4.623,14.387,14.387,0,0,1-11.185-4.83,14.446,14.446,0,0,1-2.829-11.419,12.7,12.7,0,0,1,4.666-8.276,14.99,14.99,0,0,1,8.254-3.009,13.4,13.4,0,0,1,11.7,5.114c.149,5.237,0,10.487.07,15.733-.043.691.148,1.523-.408,2.064Zm121.505-19.394a24.033,24.033,0,0,0-9.524-11.3,24.99,24.99,0,0,0-14.808-3.618,16.565,16.565,0,0,0-10.863,4.968c-.017-9,0-18-.008-27-4.1,0-8.213-.018-12.317.012.022,23.774-.035,47.56.03,71.333q5.1.012,10.2.008a1.873,1.873,0,0,0,1.989-1.254,14.412,14.412,0,0,0,.111-2.65A16.464,16.464,0,0,0,154.534,309h2.514a24.513,24.513,0,0,0,17.8-8.9c6-7.354,7.168-18.044,3.621-26.748Zm-14.355,20.281a14.933,14.933,0,0,1-10.272,3.739,13.005,13.005,0,0,1-10.207-4.692,1.481,1.481,0,0,1-.379-1.149q0-8.274,0-16.543a13.626,13.626,0,0,1,9.993-5.189,15.081,15.081,0,0,1,10.893,3.794,14.552,14.552,0,0,1-.028,20.04Zm115.63-26.245a24.447,24.447,0,0,0-22.466-8.759,16.224,16.224,0,0,0-9.2,4.772c-.027-9,0-17.993-.013-26.992q-6.147-.008-12.287,0,0,35.664,0,71.338c3.23.025,6.467-.005,9.7.025.849.013,1.91-.055,2.345-.922a8.43,8.43,0,0,0,.262-2.966A16.626,16.626,0,0,0,259.159,309h2.766a24.531,24.531,0,0,0,17.619-8.8,25.938,25.938,0,0,0,5.685-15.035v-3.223a26.174,26.174,0,0,0-5.489-14.562Zm-9.591,24.86c-3.25,4.183-8.983,5.738-14.069,4.927a12.719,12.719,0,0,1-7.932-4.9c-.2-2.024-.02-4.071-.081-6.105.043-3.741-.093-7.494.061-11.228a13.309,13.309,0,0,1,7.914-4.9c5.679-1.049,12.281,1.2,15.152,6.444a14.927,14.927,0,0,1-1.044,15.759Z" data-name="Path 11" transform="translate(-20.19 -8.999)"/></svg>