<?xml version="1.0" encoding="iso-8859-1"?>
<!-- Generator: Adobe Illustrator 18.0.0, SVG Export Plug-In . SVG Version: 6.00 Build 0)  -->
<!DOCTYPE svg PUBLIC "-//W3C//DTD SVG 1.1//EN" "http://www.w3.org/Graphics/SVG/1.1/DTD/svg11.dtd">
<svg version="1.1" id="Capa_1" xmlns="http://www.w3.org/2000/svg" xmlns:xlink="http://www.w3.org/1999/xlink" x="0px" y="0px"
	 viewBox="0 0 441.484 441.484" style="enable-background:new 0 0 441.484 441.484;" xml:space="preserve">
<path fill="#d3d3d3" d="M85.538,311.863h270.407c27.189,0,49.311-22.121,49.311-49.31c0-27.19-22.121-49.311-49.311-49.311H85.538
	c-18.919,0-34.311-15.392-34.311-34.311c0-18.918,15.392-34.31,34.311-34.31h270.407c27.189,0,49.311-22.121,49.311-49.311
	c0-27.19-22.121-49.31-49.311-49.31H153.228V26.372c0-3.616-2.58-6.717-6.136-7.375l-102-18.872
	c-2.193-0.406-4.448,0.184-6.161,1.609C37.218,3.16,36.228,5.272,36.228,7.5v92c0,2.228,0.99,4.341,2.703,5.766
	c1.358,1.13,3.059,1.734,4.797,1.734c0.454,0,0.911-0.041,1.364-0.125l102-18.872c3.556-0.658,6.136-3.759,6.136-7.375V61h202.718
	c18.919,0,34.311,15.392,34.311,34.311s-15.392,34.311-34.311,34.311H85.538c-27.189,0-49.311,22.121-49.311,49.31
	c0,27.19,22.121,49.311,49.311,49.311h270.407c18.919,0,34.311,15.392,34.311,34.311c0,18.918-15.392,34.31-34.311,34.31H85.538
	c-27.189,0-49.311,22.121-49.311,49.311s22.121,49.311,49.311,49.311h202.718v19.628c0,3.616,2.58,6.717,6.136,7.375l102,18.872
	c0.453,0.084,0.91,0.125,1.364,0.125c1.738,0,3.438-0.604,4.797-1.734c1.713-1.425,2.703-3.538,2.703-5.766v-92
	c0-2.228-0.99-4.341-2.703-5.766s-3.973-2.014-6.161-1.609l-102,18.872c-3.556,0.658-6.136,3.759-6.136,7.375v19.628H85.538
	c-18.919,0-34.311-15.392-34.311-34.311S66.619,311.863,85.538,311.863z M51.228,16.515l11.095,2.053v69.865l-11.095,2.053V16.515z
	 M138.228,74.389L77.322,85.658V21.343l60.905,11.269V74.389z M390.256,424.969l-11.095-2.053v-69.864l11.095-2.053V424.969z
	 M303.256,367.095l60.905-11.268v64.314l-60.905-11.269V367.095z"/>
<g>
</g>
<g>
</g>
<g>
</g>
<g>
</g>
<g>
</g>
<g>
</g>
<g>
</g>
<g>
</g>
<g>
</g>
<g>
</g>
<g>
</g>
<g>
</g>
<g>
</g>
<g>
</g>
<g>
</g>
</svg>
