<?xml version="1.0" encoding="iso-8859-1"?>
<!-- Generator: Adobe Illustrator 19.0.0, SVG Export Plug-In . SVG Version: 6.00 Build 0)  -->
<svg version="1.1" id="Capa_1" xmlns="http://www.w3.org/2000/svg" xmlns:xlink="http://www.w3.org/1999/xlink" x="0px" y="0px"
	 viewBox="0 0 80.667 80.667" style="enable-background:new 0 0 80.667 80.667;" xml:space="preserve">
<g>
	<path fill="#d3d3d3" d="M67.975,0H12.693C7.476,0,3.231,4.245,3.231,9.462v61.743c0,5.218,4.245,9.462,9.462,9.462h55.282
		c5.218,0,9.462-4.244,9.462-9.462V9.462C77.436,4.245,73.193,0,67.975,0z M71.436,71.205c0,1.909-1.553,3.462-3.462,3.462H12.693
		c-1.909,0-3.462-1.553-3.462-3.462V9.462C9.231,7.553,10.784,6,12.693,6h55.282c1.909,0,3.462,1.553,3.462,3.462V71.205z"/>
	<path fill="#d3d3d3" d="M54.144,12.397H26.522c-1.627,0-2.945,1.319-2.945,2.945v17.137c0,1.627,1.318,2.945,2.945,2.945h27.621
		c1.627,0,2.945-1.318,2.945-2.945V15.343C57.09,13.717,55.771,12.397,54.144,12.397z M51.09,29.425H29.577V18.397h21.512
		C51.089,18.397,51.089,29.425,51.09,29.425z"/>
	<path fill="#d3d3d3" d="M54.144,45.244H26.522c-1.627,0-2.945,1.319-2.945,2.945v17.137c0,1.627,1.318,2.945,2.945,2.945h27.621
		c1.627,0,2.945-1.318,2.945-2.945V48.189C57.09,46.563,55.771,45.244,54.144,45.244z M51.09,62.272H29.577V51.244h21.512
		C51.089,51.244,51.089,62.272,51.09,62.272z"/>
	<rect x="13.25" y="13.148" width="5.564" height="6"/>
	<rect x="13.25" y="25.31" width="5.564" height="6"/>
	<rect x="13.25" y="37.47" width="5.564" height="6"/>
	<rect x="13.25" y="49.63" width="5.564" height="6"/>
	<rect x="13.25" y="61.791" width="5.564" height="6"/>
	<rect x="61.891" y="13.148" width="5.564" height="6"/>
	<rect x="61.891" y="25.31" width="5.564" height="6"/>
	<rect x="61.891" y="37.47" width="5.564" height="6"/>
	<rect x="61.891" y="49.63" width="5.564" height="6"/>
	<rect x="61.891" y="61.791" width="5.564" height="6"/>
</g>
<g>
</g>
<g>
</g>
<g>
</g>
<g>
</g>
<g>
</g>
<g>
</g>
<g>
</g>
<g>
</g>
<g>
</g>
<g>
</g>
<g>
</g>
<g>
</g>
<g>
</g>
<g>
</g>
<g>
</g>
</svg>
